<?xml version="1.0" encoding="utf-8"?>
<!DOCTYPE svg PUBLIC "-//W3C//DTD SVG 1.1//EN" "http://www.w3.org/Graphics/SVG/1.1/DTD/svg11.dtd">
<!-- Generated by geo2svg 3.0.0. https://d3js.org/d3-geo-projection/ -->
<svg version="1.1" xmlns="http://www.w3.org/2000/svg" xmlns:xlink="http://www.w3.org/1999/xlink" width="960" height="960" viewBox="0 0 960 960" fill="none" stroke="black">
  <path d="M279.396169,331.886226L292.632485,332.385236L311.514219,351.795664L317.166466,346.456659L321.76377,349.444436L320.241849,360.969729L324.519867,369.687427L325.879448,404.074648L360.984822,404.584004L362.790012,411.449472L358.905143,416.586758L359.543696,422.951081L367.935845,435.037665L362.037511,442.44788L356.842995,464.178182L350.243715,470.942778L343.120794,466.307368L325.188407,469.432045L316.997062,459.070492L303.423098,457.647819L294.173322,448.425538L266.141046,446.729375L263.578096,441.469711L251.476595,436.815481L249.507414,429.729549L245.702079,430.054813L241.959965,416.038596L244.05771,411.837671L238.784087,399.52431L241.229106,392.625115L238.137285,379.885595L234.279183,383.793316L229.238419,381.511618L215.148829,387.213424L206.402655,386.082841L214.204597,374.778266L223.978096,373.89612L228.410689,377.816811L239.679907,368.309122L243.442835,372.368899L248.08408,360.757763L263.385398,358.342131L266.43253,342.115139L270.225317,341.482525L272.796728,332.32715ZM56.756518,341.200946L70.855074,344.815937L128.373499,344.932274L163.390024,371.369532L210.805012,388.513815L188.996103,410.687533L181.669966,410.173735L171.728435,422.95104L151.885218,420.540372L125.578814,425.652226L123.424478,385.705556L109.282368,401.322755L87.932771,404.935303L82.357814,392.757387L63.124134,393.221155L67.815649,381.819656L57.54497,373.678302L45.510996,357.143451L47.047655,353.727221L39.370526,348.676874L39.322398,343.88418L45.072232,341.989678L42.1355,337.511436ZM162.366964,94.000931L168.50807,100.609591L170.236024,114.32307L175.455926,112.193048L189.244363,122.403537L205.658278,114.419337L207.618135,123.086652L216.534213,109.665369L225.064474,106.886061L232.09875,99.006842L233.880039,102.839881L240.417784,87.083477L259.975196,80.500188L270.703019,85.195366L269.16225,93.872232L279.002782,108.266943L277.942826,119.671037L287.817341,139.496929L286.140815,147.461961L281.311324,150.682242L296.911493,165.057381L307.051435,168.7246L303.319493,164.477613L303.115043,153.141902L310.715579,141.66508L317.697916,142.435407L324.258236,150.276188L332.212075,145.413262L329.6832,140.31081L336.537689,120.652114L363.134055,118.552541L364.817262,133.382888L379.025747,152.10649L382.901064,153.9595L386.036362,150.66977L387.890981,157.855404L406.835827,164.427147L418.625595,175.742108L431.971909,170.331944L424.149258,180.697588L385.792361,290.581419L394.718201,306.494674L390.052436,319.161586L391.726392,342.594018L320.320842,348.990008L317.166466,346.456659L311.514219,351.795664L290.229623,331.119261L272.796728,332.32715L270.225317,341.482525L266.43253,342.115139L263.385398,358.342131L248.08408,360.757763L243.442835,372.368899L239.679907,368.309122L228.410689,377.816811L223.978096,373.89612L214.204597,374.778266L206.402655,386.082841L163.390024,371.369532L128.373499,344.932274L70.855074,344.815937L42.1355,337.511436L44.49645,328.305511L54.925,320.183464L51.129873,308.888879L57.5875,284.681617L76.746852,267.178464L97.659513,261.227246L103.437433,253.985037L110.941381,253.534579L114.498347,258.636418L119.644416,256.351114L123.210129,176.628914L116.2971,161.895368L105.130315,155.324837L103.228485,137.10221L115.759205,131.218786L124.517418,132.292416L119.828562,122.623538L106.296564,123.73238L104.467887,108.314244L143.772801,103.411498L141.923082,97.979555L148.531353,100.435971L159.813873,88.970367ZM322.840241,0L328.375588,6.22986L325.208492,18.06386L337.047423,20.252156L336.202801,25.004242L341.605495,30.332404L333.939574,40.172778L333.503959,63.786953L339.955436,70.992319L341.721986,83.574592L361.467991,94.183123L363.134055,118.552541L336.537689,120.652114L329.6832,140.31081L332.341544,145.017588L327.389389,149.532973L322.227706,149.621309L313.717362,141.407567L306.087284,145.384759L302.893003,162.198632L306.869016,168.781882L296.911493,165.057381L281.311324,150.682242L286.140815,147.461961L287.817341,139.496929L277.942826,119.671037L278.086336,105.449167L269.162248,93.87221L270.703018,85.195366L254.802944,80.3856L253.15028,74.705617L237.774773,74.679439L238.593327,67.955503L232.093607,60.143882L232.214689,49.356433L215.498302,34.42087L231.293178,35.661025L236.676553,41.42936L243.002127,37.174503L247.793152,41.045131L249.098546,37.594171L254.375357,37.693663L260.991989,45.43459L265.948873,43.383695L265.034537,34.700432L272.053916,30.472548L284.209512,31.307237L297.675945,19.690966L305.453363,19.445363L314.251706,8.73007L310.507643,2.092505ZM451.519071,55.669049L457.624405,75.005609L467.890024,75.25036L473.469289,81.109566L489.26219,86.240223L490.030201,93.878479L497.485707,99.498447L496.281067,107.10157L502.602118,119.550337L512.647079,129.957054L515.50128,141.31136L523.32831,145.303747L532.168134,141.047329L532.53585,133.917403L542.538456,117.012899L566.381708,95.731463L568.985628,104.629858L577.912876,103.596222L584.792168,111.941299L595.875803,117.479177L608.061555,117.867041L606.775101,123.825773L618.003417,128.524802L620.193544,124.705934L621.610093,127.803335L624.771938,124.176324L626.613021,128.169429L633.73037,125.178119L637.3287,129.643899L642.035643,127.871882L642.396484,131.717375L644.491346,128.154911L647.220056,132.975145L649.645293,129.64758L648.905528,134.307852L654.595939,131.235497L654.688568,136.356881L659.975598,131.873188L658.393566,138.909189L662.919046,134.991771L661.485427,151.227568L657.563665,153.603845L660.273892,155.153929L658.923675,163.316005L655.457433,165.41558L655.829543,172.617212L650.177593,177.146856L652.446702,180.442198L641.439493,206.040991L629.901555,223.89214L604.475901,244.565339L618.736781,250.436668L615.24551,254.629411L616.897365,259.119152L607.557155,277.610778L595.604236,284.497907L596.442301,292.269058L592.249205,300.198692L597.807983,306.644526L596.653808,316.452878L579.233969,344.944313L575.694806,358.931724L429.218723,355.891425L418.694179,344.516879L409.486026,340.834465L407.315558,327.06342L386.402962,294.008088L424.149258,180.697588L432.00256,170.583187L418.625595,175.742108L406.835827,164.427147L387.890981,157.855404L386.036362,150.66977L382.901064,153.9595L376.525364,149.642286L364.745267,133.210519L361.325291,94.964437L370.586172,93.299994L369.937046,88.569931L374.056228,84.978945L381.674318,86.718978L381.729119,82.910387L391.905599,81.344872L397.218167,73.512667L428.47979,75.359385L430.036677,70.238011L424.143998,65.138846L427.507737,58.544597L441.622693,60.301682ZM538.850894,16.706781L552.112917,61.290119L558.079316,59.547197L563.371814,68.984506L570.899301,71.099964L572.090186,83.311931L567.85882,95.746615L560.825212,97.744393L556.591008,107.31302L542.538456,117.012899L532.53585,133.917403L532.367928,140.793928L523.99454,145.47051L515.50128,141.31136L512.647079,129.957054L502.602118,119.550337L496.281067,107.10157L497.485707,99.498447L490.030201,93.878479L489.26219,86.240223L473.469289,81.109566L467.890024,75.25036L457.624405,75.005609L453.586056,59.367171L458.057726,58.608948L464.237006,64.018481L479.741693,59.012623L499.103472,63.2097L508.097585,54.187761L512.518578,37.995557L527.739016,16.147197L529.607344,6.899705ZM613.350857,239.76852L623.224535,241.22613L633.560228,248.83274L636.545642,266.553502L633.628173,284.585854L628.804141,289.85646L634.822597,292.904495L632.620227,296.224258L645.398761,311.298232L654.83118,307.077228L658.120563,309.905961L657.462454,316.773777L650.964681,319.86115L645.518847,336.767289L657.216964,347.120339L655.451955,353.401173L661.980717,364.331327L676.878193,364.402865L657.18706,392.86361L660.39305,398.535965L669.156118,400.996152L664.10799,401.341101L662.97453,407.500869L667.460177,408.115165L662.541377,411.777379L663.739965,419.288548L668.212557,422.881501L665.177098,434.781803L669.359118,433.890057L663.905511,435.893842L662.621233,431.66185L661.904105,435.432435L640.7558,444.144996L636.058333,439.522435L635.362264,448.809516L632.11608,444.969489L624.551659,445.041073L624.834632,441.123685L618.472008,444.904421L616.873807,440.781934L615.316484,445.654897L614.738098,439.106826L608.618717,432.825978L606.437341,436.810838L603.125793,432.692797L600.610166,435.167649L598.07963,445.188878L577.348722,434.965523L580.136722,423.549654L572.565736,435.697031L567.990435,429.512787L568.14777,379.959474L579.233969,344.944313L595.456716,320.777731L597.807983,306.644526L592.249205,300.198692L596.442301,292.269058L595.604236,284.497907L613.835826,270.11479L615.327551,254.277032L618.883812,250.819234L612.949739,245.400686L604.44245,244.659795ZM668.325836,135.526325L669.417645,142.889562L672.148629,137.789167L671.208871,144.651561L678.453748,141.329458L677.807206,147.619121L680.61762,141.986087L680.023341,152.356212L685.549239,144.425862L692.319829,144.247699L690.416177,149.043676L696.406852,149.242594L691.797328,154.394259L697.599806,152.188346L704.060955,170.820291L711.07594,168.173214L708.891608,170.062158L712.047714,172.56093L720.528121,163.593156L746.745538,175.506098L761.940937,175.561692L762.584767,181.663937L753.282706,193.444021L746.529978,193.806416L735.571276,213.211139L740.137096,237.233668L733.409597,248.519833L734.091595,259.162492L739.75307,266.19624L737.800264,274.587209L726.52915,279.096771L719.798609,275.543859L712.612944,277.207824L698.095856,293.428542L680.855382,300.785181L669.545286,332.716611L674.605764,346.578043L670.17141,366.480605L661.980717,364.331327L655.451955,353.401173L657.216964,347.120339L645.518847,336.767289L650.964681,319.86115L657.462454,316.773777L657.800955,309.183301L653.912079,307.200913L645.398761,311.298232L632.620227,296.224258L634.550029,292.460192L628.826567,290.152953L633.628173,284.585854L636.545642,266.553502L633.193428,248.045026L613.232541,239.729817L604.475901,244.565339L629.901555,223.89214L641.439493,206.040991L652.446702,180.442198L650.177593,177.146856L655.829543,172.617212L655.457433,165.41558L658.923675,163.316005L660.273892,155.153929L657.563665,153.603845L661.485427,151.227568L661.35274,140.184356L664.9991,135.597003L665.939494,140.356122ZM763.703931,177.625781L775.184504,183.102644L771.217262,191.624391L775.13595,208.230481L778.951994,211.594911L775.405454,229.094894L782.832274,236.752462L787.36962,273.885338L795.552348,277.541666L791.556519,292.391452L787.799524,294.636208L791.815473,304.091158L790.670372,311.203372L762.788012,339.211035L752.100901,341.180618L742.028122,348.937458L725.910338,340.190344L717.851206,347.503524L722.234532,359.074752L712.032277,375.07493L701.939982,375.112767L694.387985,382.847072L687.29269,380.286185L679.42564,362.596699L671.191426,365.425285L674.605764,346.578043L669.545286,332.716611L680.334047,301.920258L698.095856,293.428542L712.163901,277.414028L719.798609,275.543859L726.52915,279.096771L737.800264,274.587209L739.75307,266.19624L734.091595,259.162492L733.409597,248.519833L740.137096,237.233668L735.571276,213.211139L746.425259,193.9356L753.282706,193.444021L761.941854,183.134445L761.324842,176.897827ZM777.242835,219.023479L778.43396,208.386718L775.13595,208.230481L771.217262,191.624391L775.017625,184.633312L773.475702,180.494617L792.467485,177.016208L804.777547,178.643468L821.134192,187.923217L839.282104,200.039944L858.609456,222.908392L865.780919,225.936099L866.67347,228.417252L857.81119,230.699429L845.671481,256.139837L836.174412,264.469246L831.873854,282.389666L837.043292,289.984945L827.310641,303.821385L810.576243,290.998054L792.11118,290.520286L795.552348,277.541666L786.01972,270.413193L782.832274,236.752462L775.405454,229.094894ZM866.67347,228.417252L879.415408,235.125443L906.813247,237.189131L918.004279,270.755983L895.129269,270.378056L885.749826,265.334115L883.0156,278.344431L878.168645,282.548898L875.615172,276.183581L866.797443,278.450146L860.908555,275.485442L868.493209,261.554582L866.826959,258.399374L855.192458,262.333681L846.622769,270.646929L836.220656,266.173013L846.565237,254.695027L857.81119,230.699429ZM867.031234,258.767069L868.493209,261.554582L860.908555,275.485442L866.797443,278.450146L875.615172,276.183581L878.168645,282.548898L883.0156,278.344431L885.749826,265.334115L895.129269,270.378056L917.948816,270.707994L920.677602,297.554813L910.867443,293.08075L904.682141,299.893533L884.526311,303.623495L871.597237,315.741751L867.164253,307.051371L863.451477,307.372554L872.005745,295.049706L866.423385,289.735272L847.272839,303.582023L842.571303,303.556048L840.979383,299.668868L835.643532,301.581691L832.852128,297.911753L837.038072,289.900939L831.868135,281.288394L835.678044,267.188456L846.622769,270.646929L855.192458,262.333681ZM866.436036,289.748249L872.005745,295.049706L863.451477,307.372554L867.164253,307.051371L871.597237,315.741751L884.526311,303.623495L904.682141,299.893533L910.867443,293.08075L920.4545,297.451353L920.525505,307.515059L912.63355,331.823169L895.985116,330.016111L880.762365,341.863874L873.984273,340.154168L872.264323,343.039239L854.146932,329.528456L843.385538,341.411623L838.016725,329.231405L834.119618,332.609289L817.724533,321.166512L806.341762,328.608397L804.880962,334.162054L798.208548,334.534756L796.35724,342.037182L790.002917,345.160437L786.565618,344.450704L788.991555,336.974422L783.320324,328.858038L773.452606,325.630708L790.670372,311.203372L791.815473,304.091158L787.790819,294.712389L792.11118,290.520286L810.576243,290.998054L824.415284,304.14701L832.922358,298.228766L847.272839,303.582023ZM905.615822,329.253806L912.6452,331.887821L884.267551,371.505838L871.491916,358.334991L843.385558,341.4116L854.146932,329.528456L872.264282,343.039241L885.590204,339.100628L892.198631,331.497713ZM848.83192,346.392914L871.491916,358.334991L884.215977,371.447717L873.862506,377.535477L858.883657,397.752113L848.769139,393.721246L843.130352,380.699055L844.103537,376.322694L852.562353,375.944503L851.615439,369.233093L854.403884,366.885556L848.635098,356.300428ZM818.216395,321.277807L834.033052,332.572874L836.66738,328.570442L837.920684,333.064013L842.122772,333.643102L854.403884,366.885556L851.615439,369.233093L852.562353,375.944503L843.735548,376.533009L843.328829,381.551697L852.422571,396.866789L862.872529,395.092092L846.981955,425.222757L826.913747,440.567886L828.348948,450.754844L824.215591,475.881117L828.769012,507.021031L820.931286,540.128064L822.531945,553.472999L811.017171,570.185308L799.161624,560.840057L799.189504,554.667205L790.503629,546.270972L793.327905,533.019746L797.856159,533.43671L797.806909,525.466704L807.035432,513.477789L798.921605,505.554824L786.073918,501.571108L775.023549,504.126663L774.441684,497.919159L764.705732,487.83634L758.385763,490.059291L734.586656,476.689153L726.930768,480.996829L719.148486,476.97812L721.197551,468.913759L711.72198,466.424172L671.644449,493.478156L674.785925,470.232405L666.785323,463.941024L666.82925,447.057903L671.192649,442.959478L665.171735,443.783512L664.890466,438.58496L669.42194,434.083793L665.177098,434.781803L668.212557,422.881501L663.739965,419.288548L662.541377,411.777379L667.460177,408.115165L662.974529,407.500846L664.10799,401.341101L669.241945,401.349028L660.39305,398.535965L657.18706,392.86361L678.990465,362.378394L687.29269,380.286185L694.387985,382.847072L701.939982,375.112767L711.965334,375.132179L722.234532,359.074752L717.851206,347.503524L725.910338,340.190344L742.028122,348.937458L752.100901,341.180618L762.788012,339.211035L772.938227,325.624776L778.942779,325.506673L788.991555,336.974422L786.565618,344.450704L790.058557,345.150888L796.35724,342.037182L798.208548,334.534756L804.880962,334.162054L806.341762,328.608397ZM764.168419,631.548267L758.372134,636.883843L753.906686,653.230626L756.034623,655.672714L737.849814,665.773239L724.584131,664.767413L690.51896,680.304406L683.740071,678.556355L682.570477,685.568061L670.779604,687.102065L669.246236,677.953058L662.438029,672.252257L666.38484,651.026916L655.739614,650.115078L650.512759,636.690605L653.370552,630.516879L644.970588,613.469057L616.26865,619.495959L614.983679,626.630794L612.554677,619.599401L607.467153,622.862167L606.861311,614.821294L580.873191,611.191577L569.966094,619.415207L568.596224,610.443651L583.253437,583.586061L599.584521,577.777304L602.942785,581.512751L612.283813,572.552918L626.691549,572.722278L633.422808,576.775988L647.486621,565.119826L647.526225,553.746386L641.478555,548.297189L650.069789,537.642406L642.58332,524.870577L645.583133,513.310716L656.178766,509.543685L653.01071,488.808269L662.21985,488.347863L661.989652,479.472463L666.860852,485.042589L672.974204,484.176231L672.056103,493.418724L711.72198,466.424172L721.197551,468.913759L719.687514,477.505101L726.930768,480.996829L734.586656,476.689153L758.385763,490.059291L764.646722,487.802211L774.441684,497.919159L775.023549,504.126663L788.629721,502.081422L807.045103,513.430264L797.806909,525.466704L797.856159,533.43671L793.461606,532.879279L791.605522,537.580223L790.503629,546.270972L799.189504,554.667205L799.161624,560.840057L786.087588,560.201952L787.373017,565.318571L780.22959,566.800767L778.590125,572.542357L782.054335,573.017705L784.333338,581.989794L777.324268,583.037153L782.188343,586.105818L783.780285,598.4269L774.548732,616.904778L764.678483,620.492355ZM764.168419,631.548267L764.678483,620.492355L774.548732,616.904778L783.780285,598.4269L782.188343,586.105818L777.324268,583.037153L784.333338,581.989794L782.054335,573.017705L778.590125,572.542357L780.479052,566.346029L787.289187,565.381152L784.611788,560.929768L792.608328,558.604279L811.093415,569.753606L808.046705,603.134929L802.825835,607.241839L794.96437,628.149747L787.908633,633.845223L783.678897,645.007247L767.590492,640.634609L767.657352,634.155872ZM729.104558,689.427456L723.244334,685.941343L715.214406,690.113817L712.465366,686.660464L705.652839,690.630356L707.915957,697.73599L701.564119,694.735372L703.395286,688.318404L716.508563,680.427057L706.414938,678.838404L702.906976,673.46929L724.584131,664.767413L739.166975,665.351817L756.034623,655.672714L753.906686,653.230626L758.372134,636.883843L764.50762,631.553263L767.590492,640.634609L783.630863,645.001943L781.276496,650.352571L783.41632,661.308772L762.650824,676.285578L764.800117,681.766775L761.713942,687.904339L739.917256,687.740957L739.111337,680.151702L735.090504,682.719322L737.030285,687.994602ZM715.155001,690.813298L718.100983,692.915196L712.804366,694.296111ZM672.959249,714.987282L659.305193,721.929247L635.956914,748.547178L637.373523,746.20457L633.955654,745.70974L632.550635,740.280064L625.71306,742.371328L625.394841,732.841095L610.355194,733.459793L612.212781,725.091039L603.204395,713.105927L601.117543,695.917859L594.397548,689.447401L578.737336,691.763525L567.31288,684.821453L549.411043,681.850829L547.228526,685.974711L528.526399,684.986968L542.657726,672.730578L553.120597,652.184731L552.638286,646.825331L557.74468,641.731106L558.125134,633.896425L578.726311,612.166559L606.861311,614.821294L607.467153,622.862167L612.554677,619.599401L614.983679,626.630794L616.26865,619.495959L628.391632,618.61712L628.71635,615.679522L636.013439,617.897824L636.740828,614.462206L644.922813,613.452249L653.370552,630.516879L650.512759,636.690605L655.739614,650.115078L666.38484,651.026916L662.438029,672.252257L669.246236,677.953058L670.54416,686.997932L682.419331,685.6438L683.740071,678.556355L690.51896,680.304406L702.843619,673.764566L706.414938,678.838404L716.508563,680.427057L703.398573,688.317309L701.488944,694.505542L705.010012,698.028251L690.833374,704.743842L690.865496,709.76082L680.572812,708.510242ZM692.548072,707.152239L694.305355,713.236755L689.905763,712.028743ZM550.64353,682.371488L567.31288,684.821453L578.737336,691.763525L594.397548,689.447401L600.073176,694.558502L603.711592,702.393988L603.218618,713.142975L612.225463,725.133557L610.355194,733.459793L625.394821,732.841096L626.296571,743.224767L632.550635,740.280064L633.955654,745.70974L637.455457,746.417897L626.342417,765.471138L614.298535,766.48417L606.663084,772.69231L598.467112,767.305703L590.696966,770.789751L585.477428,767.684123L582.72095,773.866029L571.851815,776.465494L572.604446,783.541447L568.925133,786.246973L552.645789,780.250014L524.335057,777.954302L518.001238,770.271213L516.388154,761.645793L512.037833,761.774042L511.818912,758.699296L505.343086,764.086552L501.800685,761.717067L506.947753,730.651604L504.902524,724.891314L509.631161,720.120896L511.339652,707.767043L516.284902,704.237166L518.552744,694.42888L531.354555,684.135404L547.228528,685.974734ZM625.351892,765.303837L628.577507,771.42944L624.985927,783.240691L626.967012,793.768059L629.945705,794.402983L627.254703,801.710578L632.348441,801.832764L625.074247,829.088294L606.449942,849.207066L596.902131,847.695984L601.141539,844.296762L601.32162,834.631115L606.172462,831.896852L604.502962,827.923929L586.898412,827.006373L576.943989,813.619172L554.064209,800.741142L537.218335,800.358333L536.056618,796.960037L530.466756,800.658867L529.116138,797.550177L519.654327,800.00156L522.735644,794.187966L522.307393,776.916653L566.785116,782.954978L568.925133,786.246973L572.604446,783.541447L571.851815,776.465494L582.72095,773.866029L585.477428,767.684123L590.696966,770.789751L598.467112,767.305703L606.663084,772.69231L614.298535,766.48417ZM561.526583,918.582019L551.592156,944.561501L536.959081,960L534.447974,956.91623L536.149573,944.914757L539.351558,944.376632L541.446416,936.805177L548.937363,938.386627L552.012362,929.864902L550.814678,920.564242L542.211922,933.457535L536.044896,932.080652L528.224045,920.20013L510.490524,906.103738L497.068977,902.136325L489.625744,892.173881L481.292774,898.755493L480.5593,891.607338L463.647999,876.036573L458.290695,875.957374L455.643434,881.129212L446.867712,879.257238L469.81052,850.283505L479.683725,832.000486L483.517563,833.267219L481.531983,829.044273L496.182141,818.444885L500.18988,810.132498L510.991239,807.396925L518.776065,798.994211L523.718125,801.04525L529.116138,797.550177L530.466756,800.658867L536.010575,796.962792L537.218335,800.358333L554.027494,800.730225L576.943989,813.619172L586.898412,827.006373L604.515164,827.931956L606.172462,831.896852L601.32162,834.631115L601.141539,844.296762L596.902131,847.695984L606.430364,849.241671L586.494096,894.32625L561.702979,919.987142ZM561.424826,917.771545L560.645037,911.562731L565.925526,913.109998L577.557883,902.894954L578.777563,892.928911L587.8287,884.807203L587.096978,875.196808L590.126365,878.234571L589.379812,871.252727L583.169475,877.539384L574.94197,867.179157L575.361061,874.519532L579.485974,875.844998L575.918532,879.57105L576.189074,886.942547L574.191336,882.723612L573.316684,893.801441L563.711224,899.878082L562.139133,909.038063L558.292249,910.674006L560.82869,915.37531L558.201506,917.955498L561.214238,916.682769L558.395682,918.625754ZM456.740986,551.673001L478.51096,562.487369L489.957586,557.099584L495.535617,561.699735L500.865454,560.307149L508.620942,549.992668L509.098248,560.974515L504.220154,567.856449L523.186718,569.628224L522.975457,576.746103L530.313635,577.237004L527.32786,584.815941L537.264494,585.516191L570.638132,603.545806L568.893251,623.258363L558.011118,634.109341L549.110495,661.630348L541.080847,674.718105L518.646818,694.292305L505.931302,723.265354L497.588741,717.31587L482.30211,722.090971L476.041354,689.474685L470.426842,680.3693L462.948597,680.802377L458.730456,675.931768L449.686001,682.281775L424.706828,677.567684L426.715891,649.570463L417.887962,630.607646L424.103754,625.055563L417.897856,620.101855L429.572399,580.434809L421.038546,563.913135L429.014759,572.114749L437.454418,567.139227L443.409532,556.030225ZM483.456713,561.392353L477.560852,562.24331L456.543024,551.502928L443.409532,556.030225L437.454418,567.139227L428.984524,572.11967L422.492897,563.1211L415.582824,562.646117L407.434966,555.399895L404.906605,543.325866L407.305289,531.980876L367.328519,535.136715L364.236262,515.190303L356.389087,506.527941L363.327879,505.650544L356.026796,483.085932L358.012451,477.802285L350.058377,470.757233L356.842852,464.178166L362.037409,442.447863L367.935744,435.037671L359.543595,422.951086L362.744265,409.937468L360.814629,404.44235L350.04781,402.096208L325.879444,404.074621L324.519602,369.687421L320.241565,360.969747L323.143183,351.753319L320.320555,348.990004L391.136614,343.095454L392.775894,326.155984L390.052436,319.161586L394.744011,306.306397L407.379976,327.207661L409.486006,340.834466L418.694159,344.51688L429.303883,355.915471L575.694806,358.931724L568.14777,379.959474L565.973461,399.772585L568.140828,430.364194L572.791697,436.24473L565.605212,458.176644L566.869587,466.967403L562.320997,488.40928L552.71059,492.656441L546.056709,512.363658L538.078454,514.404747L529.303247,525.315228L530.628714,531.545552L522.922342,539.739886L519.033024,551.130522L518.973243,561.126176L523.186718,569.628224L504.220154,567.856449L509.098248,560.974515L508.473621,549.937207L500.865454,560.307149L495.535617,561.699735L489.957586,557.099584ZM579.825808,424.194132L577.348722,434.965523L598.07963,445.188878L603.082954,432.695246L606.437341,436.810838L609.137568,432.968048L614.760058,439.149566L615.316484,445.654897L616.873807,440.781934L618.472008,444.904421L624.834632,441.123685L624.551659,445.041073L632.11608,444.969489L635.362264,448.809516L636.058333,439.522435L640.7558,444.144996L661.904105,435.432435L662.621233,431.66185L663.905511,435.893842L669.359442,433.88965L664.890466,438.58496L666.003163,444.898764L671.192649,442.959478L666.82925,447.057903L666.780353,463.90876L674.796108,470.354623L671.198112,485.143566L662.039841,479.444451L662.21985,488.347863L653.041188,488.700957L656.090869,509.681227L645.205894,513.848022L642.65524,500.259226L625.630881,500.797586L624.40253,514.823172L645.548795,514.381512L642.497403,525.809116L650.075712,537.69979L641.47851,549.961319L647.526225,553.746386L647.486621,565.119826L633.422808,576.775989L626.691549,572.722278L612.283813,572.552918L602.942785,581.512751L599.584521,577.777304L583.466559,583.469739L572.679274,604.432454L537.264494,585.516191L527.32786,584.815941L530.313635,577.237004L522.975457,576.746103L518.751312,556.991126L522.862411,539.854724L530.812719,531.073482L529.325848,525.277547L538.078454,514.404747L546.056709,512.363658L552.71059,492.656441L562.320997,488.40928L566.869587,466.967403L565.605212,458.176644L573.129312,431.839969ZM639.246796,500.69704L644.904477,502.492156L645.437106,514.159347L624.40253,514.823172L625.630881,500.797586Z"></path>
</svg>
